<svg aria-hidden="true" style="position: absolute; width: 0; height: 0; overflow: hidden;" version="1.1" xmlns="http://www.w3.org/2000/svg" xmlns:xlink="http://www.w3.org/1999/xlink">
<defs>
<symbol id="cross" viewBox="0 0 32 32">
<path d="M31.708 25.708c-0-0-0-0-0-0l-9.708-9.708 9.708-9.708c0-0 0-0 0-0 0.105-0.105 0.18-0.227 0.229-0.357 0.133-0.356 0.057-0.771-0.229-1.057l-4.586-4.586c-0.286-0.286-0.702-0.361-1.057-0.229-0.13 0.048-0.252 0.124-0.357 0.228 0 0-0 0-0 0l-9.708 9.708-9.708-9.708c-0-0-0-0-0-0-0.105-0.104-0.227-0.18-0.357-0.228-0.356-0.133-0.771-0.057-1.057 0.229l-4.586 4.586c-0.286 0.286-0.361 0.702-0.229 1.057 0.049 0.13 0.124 0.252 0.229 0.357 0 0 0 0 0 0l9.708 9.708-9.708 9.708c-0 0-0 0-0 0-0.104 0.105-0.18 0.227-0.229 0.357-0.133 0.355-0.057 0.771 0.229 1.057l4.586 4.586c0.286 0.286 0.702 0.361 1.057 0.229 0.13-0.049 0.252-0.124 0.357-0.229 0-0 0-0 0-0l9.708-9.708 9.708 9.708c0 0 0 0 0 0 0.105 0.105 0.227 0.18 0.357 0.229 0.356 0.133 0.771 0.057 1.057-0.229l4.586-4.586c0.286-0.286 0.362-0.702 0.229-1.057-0.049-0.13-0.124-0.252-0.229-0.357z"></path>
</symbol>
<symbol id="heart" viewBox="0 0 32 32">
<path stroke-linejoin="round" stroke-linecap="butt" stroke-miterlimit="4" stroke-width="2.4615" d="M25.407 4.556c-0.89-0.369-1.844-0.559-2.807-0.559s-1.917 0.19-2.807 0.559c-0.89 0.369-1.698 0.909-2.38 1.591l-1.413 1.413-1.413-1.413c-1.376-1.376-3.241-2.148-5.187-2.148s-3.811 0.773-5.187 2.148-2.148 3.241-2.148 5.187c0 1.945 0.773 3.811 2.148 5.187l11.787 11.787 11.787-11.787c0.681-0.681 1.222-1.49 1.591-2.38s0.559-1.844 0.559-2.807-0.19-1.917-0.559-2.807c-0.369-0.89-0.909-1.699-1.591-2.38s-1.49-1.222-2.38-1.591z"></path>
</symbol>
<symbol id="star" viewBox="0 0 34 32">
<path fill="#ffc531" style="fill: var(--color1, #ffc531)" d="M15.717 0.631l-4.464 8.462c-0.171 0.324-0.483 0.551-0.844 0.613l-9.427 1.631c-0.937 0.162-1.309 1.307-0.646 1.989l6.668 6.861c0.255 0.263 0.374 0.629 0.322 0.992l-1.362 9.47c-0.135 0.941 0.839 1.649 1.692 1.229l8.585-4.221c0.329-0.162 0.714-0.162 1.043 0l8.585 4.221c0.853 0.419 1.827-0.288 1.692-1.229l-1.362-9.47c-0.052-0.363 0.067-0.729 0.322-0.992l6.668-6.861c0.662-0.682 0.29-1.827-0.646-1.989l-9.427-1.631c-0.361-0.063-0.673-0.289-0.844-0.613l-4.464-8.461c-0.444-0.841-1.648-0.841-2.091 0z"></path>
<path fill="#ffc531" style="fill: var(--color1, #ffc531)" d="M11.253 9.092l4.464-8.462c0.444-0.841 1.648-0.841 2.091 0l4.464 8.461c0.171 0.324 0.483 0.551 0.844 0.613l9.427 1.631c0.937 0.162 1.309 1.307 0.646 1.989l-6.668 6.861c-0.255 0.263-0.374 0.629-0.322 0.992l1.362 9.47c0.135 0.941-0.839 1.649-1.692 1.229l-8.585-4.221c-0.329-0.162-0.714-0.162-1.043 0l-8.585 4.221c-0.853 0.419-1.827-0.288-1.692-1.229l1.362-9.47c0.052-0.363-0.067-0.729-0.322-0.992l-6.668-6.861c-0.662-0.682-0.29-1.827 0.646-1.989l9.427-1.631c0.361-0.063 0.673-0.289 0.844-0.613zM13.762 10.416c-0.582 1.102-1.642 1.872-2.87 2.085l-6.336 1.096 4.482 4.611c0.869 0.894 1.274 2.14 1.096 3.373l-0.915 6.365 5.77-2.837c1.118-0.55 2.429-0.55 3.547 0l5.77 2.837-0.915-6.365c-0.177-1.234 0.227-2.48 1.096-3.373l4.482-4.611-6.336-1.096c-1.228-0.212-2.288-0.983-2.869-2.085l-3.001-5.687-3.001 5.687z"></path>
</symbol>
<symbol id="chevron-up" viewBox="0 0 32 32">
<path fill="none" stroke="#fbfbfb" style="stroke: var(--color2, #fbfbfb)" stroke-linejoin="round" stroke-linecap="round" stroke-miterlimit="4" stroke-width="3.2" d="M8 20l8-8 8 8"></path>
</symbol>
<symbol id="choose-heart" viewBox="0 0 32 32">
<path fill="#54be96" style="fill: var(--color3, #54be96)" d="M27.787 6.147c-0.681-0.681-1.49-1.222-2.38-1.591s-1.844-0.559-2.807-0.559c-0.963 0-1.917 0.19-2.807 0.559s-1.698 0.909-2.38 1.591l-1.413 1.413-1.413-1.413c-1.376-1.376-3.241-2.148-5.187-2.148s-3.811 0.773-5.187 2.148-2.148 3.241-2.148 5.187c0 1.945 0.773 3.811 2.148 5.187l11.787 11.787 11.787-11.787c0.681-0.681 1.222-1.49 1.59-2.38s0.559-1.844 0.559-2.807-0.19-1.917-0.559-2.807c-0.369-0.89-0.909-1.699-1.59-2.38z"></path>
<path fill="none" stroke="#54be96" style="stroke: var(--color3, #54be96)" stroke-linejoin="round" stroke-linecap="butt" stroke-miterlimit="4" stroke-width="2.4615" d="M25.407 4.556c-0.89-0.369-1.844-0.559-2.807-0.559s-1.917 0.19-2.807 0.559c-0.89 0.369-1.698 0.909-2.38 1.591l-1.413 1.413-1.413-1.413c-1.376-1.376-3.241-2.148-5.187-2.148s-3.811 0.773-5.187 2.148-2.148 3.241-2.148 5.187c0 1.945 0.773 3.811 2.148 5.187l11.787 11.787 11.787-11.787c0.681-0.681 1.222-1.49 1.591-2.38s0.559-1.844 0.559-2.807-0.19-1.917-0.559-2.807c-0.369-0.89-0.909-1.699-1.591-2.38s-1.49-1.222-2.38-1.591z"></path>
</symbol>
<symbol id="clock" viewBox="0 0 32 32">
<path stroke-linejoin="round" stroke-linecap="butt" stroke-miterlimit="4" stroke-width="2.4" d="M16 29.333c-7.364 0-13.333-5.969-13.333-13.333s5.97-13.333 13.333-13.333c7.364 0 13.333 5.97 13.333 13.333s-5.97 13.333-13.333 13.333z"></path>
<path stroke-linejoin="round" stroke-linecap="round" stroke-miterlimit="4" stroke-width="2.4" d="M16 8v8l5.333 2.667"></path>
</symbol>
<symbol id="chevron-down" viewBox="0 0 32 32">
<path fill="none" stroke="#fbfbfb" style="stroke: var(--color2, #fbfbfb)" stroke-linejoin="round" stroke-linecap="round" stroke-miterlimit="4" stroke-width="3.2" d="M8 12l8 8 8-8"></path>
</symbol>
<symbol id="eye-off" viewBox="0 0 32 32">
<path stroke-linejoin="round" stroke-linecap="butt" stroke-miterlimit="4" stroke-width="3.2" d="M23.92 23.92c-2.279 1.737-5.054 2.7-7.92 2.747-9.333 0-14.667-10.667-14.667-10.667 1.659-3.091 3.959-5.791 6.747-7.92M13.2 5.653c0.918-0.215 1.857-0.322 2.8-0.32 9.333 0 14.667 10.667 14.667 10.667-0.809 1.514-1.775 2.94-2.88 4.253M18.827 18.827c-0.366 0.393-0.808 0.708-1.298 0.927s-1.020 0.336-1.557 0.346c-0.537 0.010-1.071-0.089-1.569-0.29s-0.95-0.501-1.33-0.88-0.679-0.832-0.88-1.33c-0.201-0.498-0.3-1.032-0.29-1.569s0.127-1.067 0.346-1.557c0.219-0.491 0.534-0.932 0.927-1.298"></path>
<path stroke-linejoin="round" stroke-linecap="round" stroke-miterlimit="4" stroke-width="3.2" d="M1.333 1.333l29.333 29.333"></path>
</symbol>
<symbol id="eye" viewBox="0 0 32 32">
<path stroke-linejoin="round" stroke-linecap="butt" stroke-miterlimit="4" stroke-width="3.2" d="M16 5.333c9.333 0 14.667 10.667 14.667 10.667s-5.333 10.667-14.667 10.667c-9.333 0-14.667-10.667-14.667-10.667s5.333-10.667 14.667-10.667z"></path>
<path stroke-linejoin="round" stroke-linecap="butt" stroke-miterlimit="4" stroke-width="3.2" d="M16 20c-2.209 0-4-1.791-4-4s1.791-4 4-4c2.209 0 4 1.791 4 4s-1.791 4-4 4z"></path>
</symbol>
<symbol id="question" viewBox="0 0 19 32">
<path fill="#fbfbfb" style="fill: var(--color2, #fbfbfb)" d="M4.303 9.143c0-2.521 1.929-4.571 4.303-4.571h2.151c2.373 0 4.303 2.050 4.303 4.571v0.257c0 1.557-0.746 3.007-1.976 3.843l-2.837 1.936c-0.833 0.569-1.518 1.351-1.993 2.275s-0.723 1.959-0.723 3.011v0.107c0 1.264 0.961 2.286 2.151 2.286s2.151-1.021 2.151-2.286v-0.1c0-0.586 0.282-1.129 0.739-1.443l2.837-1.936c2.46-1.686 3.953-4.579 3.953-7.693v-0.257c0-5.050-3.852-9.143-8.605-9.143h-2.151c-4.753 0-8.605 4.093-8.605 9.143 0 1.264 0.961 2.286 2.151 2.286s2.151-1.021 2.151-2.286zM9.681 32c0.713 0 1.397-0.301 1.901-0.837s0.788-1.263 0.788-2.020c0-0.758-0.283-1.485-0.788-2.020s-1.188-0.837-1.901-0.837-1.397 0.301-1.901 0.837c-0.504 0.536-0.788 1.263-0.788 2.020s0.283 1.484 0.788 2.020 1.188 0.837 1.901 0.837z"></path>
</symbol>
<symbol id="users" viewBox="0 0 32 32">
<path fill="#fbfbfb" style="fill: var(--color2, #fbfbfb)" d="M18.797 22.385l-0.564 2.103-14.722-3.945 0.564-2.103c0 0 1.127-4.206 8.488-2.234s6.234 6.179 6.234 6.179zM17.794 11.409c0.195-0.728 0.17-1.497-0.072-2.211s-0.691-1.339-1.289-1.798c-0.598-0.459-1.318-0.73-2.070-0.779s-1.502 0.126-2.154 0.502c-0.653 0.377-1.179 0.939-1.512 1.615s-0.459 1.435-0.36 2.183c0.098 0.747 0.416 1.448 0.913 2.015s1.151 0.973 1.879 1.168c0.976 0.262 2.016 0.125 2.891-0.381s1.514-1.338 1.775-2.314zM19.861 18.162c0.512 0.674 0.871 1.451 1.050 2.278s0.176 1.683-0.011 2.509l-0.564 2.103 4.206 1.127 0.564-2.103c0 0 1.023-3.817-5.245-5.914zM21.409 8.433c-0.723-0.198-1.489-0.171-2.196 0.077 0.4 1.064 0.456 2.226 0.162 3.323s-0.924 2.075-1.802 2.797c0.488 0.568 1.138 0.974 1.863 1.164 0.976 0.262 2.016 0.125 2.891-0.381s1.514-1.338 1.775-2.314c0.261-0.976 0.125-2.016-0.381-2.891s-1.338-1.514-2.314-1.775z"></path>
</symbol>
<symbol id="check" viewBox="0 0 43 32">
<path fill="#fbfbfb" style="fill: var(--color2, #fbfbfb)" d="M5.333 10.667l-5.333 5.333 16 16 26.667-26.667-5.333-5.333-21.333 21.333-10.667-10.667z"></path>
</symbol>
<symbol id="arrow" viewBox="0 0 28 32">
<path  d="M0 29.589l3.199 2.411 21.696-28.791-3.199-2.411-21.695 28.791zM21.59 4.266l-13.883 1.951c-1.111 0.156-2.106-0.594-2.262-1.705s0.594-2.106 1.705-2.262l15.866-2.23c1.111-0.156 2.106 0.594 2.262 1.705l2.23 15.866c0.156 1.111-0.594 2.106-1.705 2.262s-2.106-0.594-2.262-1.705l-1.951-13.883z"></path>
</symbol>
<symbol id="eye" viewBox="0 0 32 32">
<path d="M16 6c-6.979 0-13.028 4.064-16 10 2.972 5.936 9.021 10 16 10s13.027-4.064 16-10c-2.972-5.936-9.021-10-16-10zM23.889 11.303c1.88 1.199 3.473 2.805 4.67 4.697-1.197 1.891-2.79 3.498-4.67 4.697-2.362 1.507-5.090 2.303-7.889 2.303s-5.527-0.796-7.889-2.303c-1.88-1.199-3.473-2.805-4.67-4.697 1.197-1.891 2.79-3.498 4.67-4.697 0.122-0.078 0.246-0.154 0.371-0.228-0.311 0.854-0.482 1.776-0.482 2.737 0 4.418 3.582 8 8 8s8-3.582 8-8c0-0.962-0.17-1.883-0.482-2.737 0.124 0.074 0.248 0.15 0.371 0.228v0zM16 13c0 1.657-1.343 3-3 3s-3-1.343-3-3 1.343-3 3-3 3 1.343 3 3z"></path>
</symbol>
<symbol id="eye-blocked" viewBox="0 0 32 32">
<path d="M29.561 0.439c-0.586-0.586-1.535-0.586-2.121 0l-6.318 6.318c-1.623-0.492-3.342-0.757-5.122-0.757-6.979 0-13.028 4.064-16 10 1.285 2.566 3.145 4.782 5.407 6.472l-4.968 4.968c-0.586 0.586-0.586 1.535 0 2.121 0.293 0.293 0.677 0.439 1.061 0.439s0.768-0.146 1.061-0.439l27-27c0.586-0.586 0.586-1.536 0-2.121zM13 10c1.32 0 2.44 0.853 2.841 2.037l-3.804 3.804c-1.184-0.401-2.037-1.521-2.037-2.841 0-1.657 1.343-3 3-3zM3.441 16c1.197-1.891 2.79-3.498 4.67-4.697 0.122-0.078 0.246-0.154 0.371-0.228-0.311 0.854-0.482 1.776-0.482 2.737 0 1.715 0.54 3.304 1.459 4.607l-1.904 1.904c-1.639-1.151-3.038-2.621-4.114-4.323z"></path>
<path d="M24 13.813c0-0.849-0.133-1.667-0.378-2.434l-10.056 10.056c0.768 0.245 1.586 0.378 2.435 0.378 4.418 0 8-3.582 8-8z"></path>
<path d="M25.938 9.062l-2.168 2.168c0.040 0.025 0.079 0.049 0.118 0.074 1.88 1.199 3.473 2.805 4.67 4.697-1.197 1.891-2.79 3.498-4.67 4.697-2.362 1.507-5.090 2.303-7.889 2.303-1.208 0-2.403-0.149-3.561-0.439l-2.403 2.403c1.866 0.671 3.873 1.036 5.964 1.036 6.978 0 13.027-4.064 16-10-1.407-2.81-3.504-5.2-6.062-6.938z"></path>
</symbol>
<symbol id="icon-close" viewBox="0 0 20 20">
<path d="M10 8.586l-7.071-7.071-1.414 1.414 7.071 7.071-7.071 7.071 1.414 1.414 7.071-7.071 7.071 7.071 1.414-1.414-7.071-7.071 7.071-7.071-1.414-1.414-7.071 7.071z"></path>
</symbol>
<symbol id="icon-keyboard_arrow_up" viewBox="0 0 24 24">
<path d="M7.406 15.422l-1.406-1.406 6-6 6 6-1.406 1.406-4.594-4.594z"></path>
</symbol>
<symbol id="icon-keyboard_arrow_down" viewBox="0 0 24 24">
<path d="M7.406 8.578l4.594 4.594 4.594-4.594 1.406 1.406-6 6-6-6z"></path>
</symbol>

</defs>
</svg>
